<?xml version="1.0" standalone="no"?>
<!DOCTYPE svg PUBLIC "-//W3C//DTD SVG 20010904//EN"
 "http://www.w3.org/TR/2001/REC-SVG-20010904/DTD/svg10.dtd">
<svg version="1.0" xmlns="http://www.w3.org/2000/svg"
 width="260.000000pt" height="260.000000pt" viewBox="0 0 260.000000 260.000000"
 preserveAspectRatio="xMidYMid meet">
<metadata>
Created by potrace 1.14, written by Peter Selinger 2001-2017
</metadata>
<g transform="translate(0.000000,260.000000) scale(0.100000,-0.100000)"
fill="#000000" stroke="none">
<path d="M1114 2586 c-50 -7 -96 -16 -103 -20 -13 -8 -55 -17 -83 -17 -10 0
-18 -5 -18 -10 0 -5 -6 -9 -12 -7 -7 1 -22 -3 -33 -9 -11 -6 -23 -11 -28 -12
-4 0 -26 -9 -50 -19 -23 -10 -61 -27 -84 -37 -24 -10 -43 -22 -43 -27 0 -4 -7
-8 -15 -8 -8 0 -15 -5 -15 -11 0 -5 -4 -8 -9 -4 -6 3 -14 -3 -20 -12 -6 -10
-11 -14 -11 -10 0 17 -159 -114 -229 -189 -76 -82 -161 -194 -161 -213 0 -6
-5 -11 -11 -11 -5 0 -7 -4 -4 -10 3 -5 2 -10 -4 -10 -8 0 -81 -140 -81 -155 0
-2 -5 -16 -11 -32 -6 -15 -11 -30 -11 -33 -1 -3 -7 -19 -14 -36 -7 -17 -10
-34 -7 -38 4 -3 1 -6 -6 -6 -7 0 -11 -8 -10 -17 1 -10 -1 -25 -4 -33 -10 -24
-17 -67 -29 -189 -13 -129 0 -319 29 -413 9 -29 16 -61 15 -71 0 -9 4 -17 10
-17 5 0 8 -7 5 -15 -4 -8 -2 -17 3 -20 5 -3 14 -22 21 -43 21 -66 90 -202 101
-202 6 0 9 -3 5 -6 -3 -3 -2 -11 3 -18 29 -35 109 -146 106 -146 -2 0 31 -34
73 -75 75 -74 241 -203 241 -188 0 5 5 0 11 -10 6 -9 14 -15 20 -12 5 4 9 2 9
-3 0 -5 17 -16 38 -25 20 -8 75 -32 122 -52 47 -20 96 -39 110 -42 36 -7 41
-8 85 -21 22 -6 49 -11 60 -11 11 0 45 -5 75 -10 30 -5 96 -10 145 -10 99 0
294 23 304 36 3 4 17 9 31 10 49 4 60 7 60 16 0 5 6 7 14 4 8 -3 17 -3 21 1 4
4 10 7 13 8 29 4 232 105 232 115 0 6 4 8 9 5 15 -10 172 117 261 210 81 85
180 214 164 214 -4 0 1 7 12 15 10 8 15 15 9 15 -6 0 -5 3 1 8 16 11 109 219
105 236 -1 5 2 12 7 15 6 3 12 22 15 42 2 20 8 42 12 49 12 20 34 211 34 300
1 87 -23 282 -36 303 -4 7 -6 20 -5 30 2 9 -1 17 -6 17 -6 0 -8 9 -5 20 3 12
0 20 -7 20 -7 0 -10 6 -7 14 3 8 3 17 -1 21 -4 4 -7 10 -8 13 -1 7 -28 69 -62
142 -9 19 -21 38 -26 42 -6 4 -7 8 -2 8 7 0 -13 36 -36 65 -4 5 -31 42 -58 80
-28 39 -80 101 -117 138 -71 73 -237 200 -247 190 -3 -4 -6 -2 -6 4 0 17 -250
131 -272 125 -5 -1 -8 3 -8 9 0 5 -8 9 -17 8 -10 -1 -21 0 -25 1 -5 1 -11 3
-15 4 -5 2 -26 7 -48 14 -110 31 -317 38 -471 18z"/>
</g>
</svg>
